HIERARCHY
ROOT Hips
{
	OFFSET 0.00000 0.00000 0.00000
	CHANNELS 6 Xposition Yposition Zposition Zrotation Yrotation Xrotation 
	JOINT RightUpLegDummy
	{
		OFFSET 0 0 0
		CHANNELS 3 Zrotation Yrotation Xrotation
		JOINT RightUpLeg
		{
			OFFSET -3.52197 -3.41223 0.04002
			CHANNELS 3 Zrotation Yrotation Xrotation
			JOINT RightLeg
			{
				OFFSET 0.00006 -17.42390 1.60435
				CHANNELS 3 Zrotation Yrotation Xrotation
				JOINT RightFoot
				{
					OFFSET 0.06153 -16.50078 -1.63901
					CHANNELS 3 Zrotation Yrotation Xrotation
					JOINT RightToes
					{
						OFFSET 0.00298 -1.73825 3.34613
						CHANNELS 3 Zrotation Yrotation Xrotation
						End Site
						{
							OFFSET 0.00480 -0.05416 3.85043
						}
					}
				}
			}
		}
	}
	JOINT SpineDummy
	{
		OFFSET 0 0 0
		CHANNELS 3 Zrotation Yrotation Xrotation
		JOINT Spine
		{
			OFFSET 0.00000 4.68130 0.00000
			CHANNELS 3 Zrotation Yrotation Xrotation
			JOINT Spine1
			{
				OFFSET -0.00000 10.10138 0.05002
				CHANNELS 3 Zrotation Yrotation Xrotation
				JOINT HEadDummy
				{
					OFFSET 0 0 0
					CHANNELS 3 Zrotation Yrotation Xrotation
					JOINT Head
					{
						OFFSET -0.00000 3.43865 0.00438
						CHANNELS 3 Zrotation Yrotation Xrotation
						End Site
						{
							OFFSET -0.11417 5.02924 0.98962
						}
					}
				}
				JOINT LeftShoulder1Dummy
				{
					OFFSET 0 0 0
					CHANNELS 3 Zrotation Yrotation Xrotation
					JOINT LeftShoulder1
					{
						OFFSET 3.53937 -0.14262 -0.08662
						CHANNELS 3 Zrotation Yrotation Xrotation
						JOINT LeftArm
						{
							OFFSET 4.04833 -0.00133 0.12681
							CHANNELS 3 Zrotation Yrotation Xrotation
							JOINT LeftForeArm
							{
								OFFSET 10.33880 -0.01036 -0.55515
								CHANNELS 3 Zrotation Yrotation Xrotation
								JOINT LeftHand
								{
									OFFSET 8.69677 0.07543 0.40060
									CHANNELS 3 Zrotation Yrotation Xrotation
									End Site
									{
										OFFSET 5.28377 -0.21905 0.59205
									}
								}
							}
						}
					}
				}
				JOINT RightShoulderDummy
				{
					OFFSET 0 0 0
					CHANNELS 3 Zrotation Yrotation Xrotation
					JOINT RightShoulder
					{
						OFFSET -3.53937 -0.14262 -0.08660
						CHANNELS 3 Zrotation Yrotation Xrotation
						JOINT RightArm
						{
							OFFSET -4.04833 -0.00133 0.12683
							CHANNELS 3 Zrotation Yrotation Xrotation
							JOINT RightForeArm
							{
								OFFSET -10.37987 -0.01039 -0.55511
								CHANNELS 3 Zrotation Yrotation Xrotation
								JOINT RightHand
								{
									OFFSET -8.67398 0.07538 0.40058
									CHANNELS 3 Zrotation Yrotation Xrotation
									End Site
									{
										OFFSET -5.24810 -0.21916 0.59204
									}
								}
							}
						}
					}
				}
			}
		}
	}
	JOINT LeftUpLegDummy
	{
		OFFSET 0 0 0
		CHANNELS 3 Zrotation Yrotation Xrotation
		JOINT LeftUpLeg
		{
			OFFSET 3.52197 -3.41223 0.04002
			CHANNELS 3 Zrotation Yrotation Xrotation
			JOINT LeftLeg
			{
				OFFSET -0.00012 -17.42399 1.60337
				CHANNELS 3 Zrotation Yrotation Xrotation
				JOINT LeftFoot
				{
					OFFSET -0.09972 -16.50070 -1.63802
					CHANNELS 3 Zrotation Yrotation Xrotation
					JOINT LeftToes
					{
						OFFSET -0.01575 -1.73823 3.34611
						CHANNELS 3 Zrotation Yrotation Xrotation
						End Site
						{
							OFFSET 0.03150 -0.01868 3.85031
						}
					}
				}
			}
		}
	}
}
MOTION
Frames: 8
Frame Time: 0.033333
-46.4403 40.4645 -77.9987 -1.2618 19.9511 -1.7869 0.0000 0.0000 0.0000 2.8447 -0.9855 1.8645 -1.2750 -5.2182 3.7739 -1.6066 0.0853 -3.4732 0.0000 -0.0000 0.0000 0.0000 0.0000 0.0000 1.1404 -0.5534 0.8470 2.4790 -1.1195 1.0717 -0.0000 0.0000 -0.0000 8.8130 -51.5372 -2.4325 -0.0000 0.0000 -0.0000 -33.8450 -2.4437 2.3788 -45.3528 -15.8351 -17.5135 -10.1223 5.0663 50.3215 12.9727 -2.5070 -0.8617 -0.0000 0.0000 -0.0000 35.0701 5.2285 3.5786 38.9633 5.1933 -18.6759 9.9225 -0.2135 23.6115 -9.9477 2.4967 -0.6551 0.0000 0.0000 0.0000 -0.0545 1.2669 1.7101 2.5506 11.7553 6.5915 2.0686 -0.0806 -5.5204 0.0000 0.0000 -0.0000
-46.4403 40.4645 -78.0060 -1.2618 19.9382 -1.8088 0.0000 0.0000 0.0000 2.8842 -0.9087 1.8621 -1.3751 -5.2877 3.8003 -1.5403 0.0810 -3.4713 0.0000 -0.0000 0.0000 0.0000 0.0000 0.0000 1.1768 -0.5482 0.8092 2.4232 -1.1063 1.1185 -0.0000 0.0000 -0.0000 8.7470 -51.5881 -2.3533 -0.0000 0.0000 -0.0000 -33.7957 -2.4626 2.3788 -45.3673 -15.7458 -17.5162 -10.1170 5.0642 50.3937 13.0814 -2.6560 -0.8849 -0.0000 0.0000 -0.0000 35.1006 5.2285 3.5786 38.9364 5.1621 -18.6922 9.9158 -0.2240 23.6560 -9.6667 2.5534 -0.6400 0.0000 0.0000 0.0000 -0.0624 1.2669 1.7282 2.5494 11.7737 6.5913 2.1195 -0.0839 -5.5156 0.0000 0.0000 -0.0000
-46.4403 40.4645 -78.0261 -1.2693 19.9207 -1.8393 0.0000 0.0000 0.0000 2.9289 -0.8199 1.8541 -1.4876 -5.3565 3.8204 -1.4780 0.0769 -3.4483 0.0000 -0.0000 0.0000 0.0000 0.0000 0.0000 1.2053 -0.5426 0.7824 2.3920 -1.0966 1.1468 -0.0000 0.0000 -0.0000 8.5736 -51.6766 -2.1879 -0.0000 0.0000 -0.0000 -33.7112 -2.4835 2.3788 -45.4112 -15.5570 -17.3833 -10.1941 5.0628 50.4095 13.2447 -2.7893 -0.9105 -0.0000 0.0000 -0.0000 35.1020 5.2247 3.5786 38.8863 5.1237 -18.8786 9.7958 -0.3380 24.4060 -8.8452 2.7712 -0.5986 0.0000 0.0000 0.0000 -0.0689 1.2693 1.7305 2.5484 11.7905 6.5925 2.1526 -0.0860 -5.4989 0.0000 0.0000 -0.0000
-46.4400 40.4645 -78.0530 -1.3046 19.8956 -1.8699 0.0000 0.0000 0.0000 2.9737 -0.7663 1.8444 -1.5288 -5.3751 3.7917 -1.4663 0.0760 -3.3943 0.0000 -0.0000 0.0000 0.0000 0.0000 0.0000 1.2152 -0.5160 0.7645 2.4615 -1.0846 1.1773 -0.0000 0.0000 -0.0000 8.3281 -51.6883 -2.0015 -0.0000 0.0000 -0.0000 -33.6782 -2.4737 2.3734 -45.4454 -15.4740 -17.2360 -10.2913 5.0634 50.3498 13.5664 -2.7441 -0.9285 -0.0000 0.0000 -0.0000 35.0531 5.2176 3.5786 38.9051 5.1013 -18.8792 9.7998 -0.3645 24.3669 -8.8137 2.7488 -0.5948 0.0000 0.0000 0.0000 -0.0423 1.2839 1.6932 2.5482 11.7925 6.6327 2.1359 -0.0849 -5.4988 0.0000 0.0000 -0.0000
-46.4417 40.4645 -78.0794 -1.3638 19.8477 -1.8797 0.0000 0.0000 0.0000 3.0374 -0.7060 1.8016 -1.5492 -5.3831 3.7612 -1.4692 0.0760 -3.3377 0.0000 -0.0000 0.0000 0.0000 0.0000 0.0000 1.2470 -0.4491 0.6987 2.5492 -1.0374 1.2561 -0.0000 0.0000 -0.0000 8.1362 -51.6202 -1.8332 -0.0000 0.0000 -0.0000 -33.6804 -2.4308 2.3565 -45.4863 -15.6048 -17.2838 -10.2592 5.0571 50.5694 14.1604 -2.9400 -0.9934 -0.0000 0.0000 -0.0000 35.0174 5.2136 3.5786 38.9289 5.0624 -18.8209 9.8511 -0.3215 23.9530 -8.8186 2.6900 -0.5912 0.0000 0.0000 0.0000 0.0145 1.3185 1.6098 2.5522 11.7986 6.7100 2.1120 -0.0834 -5.5297 0.0000 0.0000 -0.0000
-46.4442 40.4645 -78.1055 -1.3997 19.8233 -1.8563 0.0000 0.0000 0.0000 3.0857 -0.6374 1.7061 -1.5959 -5.4296 3.7888 -1.4447 0.0744 -3.3180 0.0000 -0.0000 0.0000 0.0000 0.0000 0.0000 1.2836 -0.3852 0.6211 2.5502 -0.9757 1.3107 -0.0000 0.0000 -0.0000 8.1611 -51.6328 -1.7462 -0.0000 0.0000 -0.0000 -33.5965 -2.3876 2.3344 -45.6200 -15.7571 -17.4666 -10.1054 5.0423 51.1171 14.7227 -3.5192 -1.1032 -0.0000 0.0000 -0.0000 35.0592 5.2103 3.5830 38.9423 4.9761 -18.7512 9.9075 -0.2001 23.5066 -8.3455 2.7505 -0.5619 0.0000 0.0000 0.0000 0.0632 1.3668 1.5066 2.5156 11.7756 6.7652 2.1271 -0.0844 -5.5520 0.0000 0.0000 -0.0000
-46.4483 40.4645 -78.1347 -1.3873 19.9115 -1.8388 0.0000 0.0000 0.0000 3.0746 -0.6191 1.6273 -1.6371 -5.5364 3.8407 -1.3811 0.0703 -3.3373 0.0000 -0.0000 0.0000 0.0000 0.0000 0.0000 1.2430 -0.3986 0.6310 2.5304 -0.9824 1.2665 -0.0000 0.0000 -0.0000 8.3721 -51.7515 -1.7667 -0.0000 0.0000 -0.0000 -33.4429 -2.3778 2.3215 -45.8069 -15.6887 -17.5322 -10.0205 5.0385 51.2727 14.7985 -3.6071 -1.1200 -0.0000 0.0000 -0.0000 35.1389 5.2079 3.5923 38.9574 4.8915 -18.7133 9.9277 -0.1006 23.3891 -7.5269 2.8956 -0.5127 0.0000 0.0000 0.0000 0.0805 1.4133 1.4440 2.4155 11.6516 6.7458 2.1774 -0.0876 -5.5249 0.0000 0.0000 -0.0000
-46.4539 40.4645 -78.1650 -1.3691 20.1039 -1.8722 0.0000 0.0000 0.0000 3.0406 -0.6501 1.6367 -1.6478 -5.6955 3.8408 -1.2885 0.0644 -3.3559 0.0000 -0.0000 0.0000 0.0000 0.0000 0.0000 1.1152 -0.4878 0.7123 2.6374 -1.0872 1.2079 -0.0000 0.0000 -0.0000 8.4757 -51.6997 -1.7532 -0.0000 0.0000 -0.0000 -33.4444 -2.3981 2.3296 -45.8329 -15.4583 -17.4212 -10.1055 5.0589 50.5722 14.5213 -2.5737 -0.9758 -0.0000 0.0000 -0.0000 35.1345 5.2061 3.5914 39.0049 4.9027 -18.6936 9.9233 -0.1098 23.4640 -7.0906 2.8562 -0.4792 0.0000 0.0000 0.0000 0.0774 1.4238 1.4491 2.3304 11.4601 6.6735 2.2164 -0.0901 -5.4655 0.0000 0.0000 -0.0000
